<svg width="39" height="36" viewBox="0 0 39 36" fill="none" xmlns="http://www.w3.org/2000/svg">
<ellipse cx="19.3571" cy="18" rx="19.3032" ry="18" fill="url(#paint0_linear_7_21)"/>
<path d="M8.7303 18.0303C14.3437 15.8076 18.0869 14.3423 19.9598 13.6343C25.3074 11.6129 26.4185 11.2617 27.1428 11.2501C27.3021 11.2476 27.6582 11.2835 27.8889 11.4536C28.0837 11.5972 28.1373 11.7913 28.163 11.9275C28.1886 12.0637 28.2206 12.374 28.1952 12.6164C27.9054 15.3836 26.6515 22.0988 26.0136 25.198C25.7437 26.5095 25.2122 26.9492 24.6977 26.9922C23.5794 27.0857 22.7303 26.3206 21.6473 25.6754C19.9525 24.6657 18.9951 24.0372 17.35 23.052C15.4489 21.9134 16.6813 21.2876 17.7648 20.2649C18.0483 19.9972 22.9752 15.9245 23.0706 15.555C23.0825 15.5088 23.0936 15.3366 22.981 15.2456C22.8684 15.1547 22.7022 15.1858 22.5823 15.2105C22.4123 15.2456 19.7049 16.8719 14.4601 20.0895C13.6916 20.5691 12.9955 20.8027 12.3719 20.7905C11.6843 20.777 10.3618 20.4372 9.37865 20.1467C8.17275 19.7905 7.21433 19.6021 7.29779 18.9971C7.34126 18.682 7.81876 18.3597 8.7303 18.0303Z" fill="white"/>
<defs>
<linearGradient id="paint0_linear_7_21" x1="0.197119" y1="0" x2="0.197119" y2="35.733" gradientUnits="userSpaceOnUse">
<stop stop-color="#2AABEE"/>
<stop offset="1" stop-color="#229ED9"/>
</linearGradient>
</defs>
</svg>
