<svg width="95" height="111" viewBox="0 0 95 111" fill="none" xmlns="http://www.w3.org/2000/svg">
<path d="M52.7025 64.2098H42.5697V59.9882H52.7025V64.2098ZM66.192 0.0975932C66.0212 0.177751 65.8663 0.305723 65.7502 0.475678L65.7434 0.485517L65.946 0.625304L65.9512 0.614109L65.9516 0.613326L66.192 0.0975932ZM65.7386 0.492492L65.9428 0.632078L64.3725 4.00043L63.2 5.64007H62.1944L65.7386 0.492492ZM63.3569 5.64007L64.1397 4.49985L63.6081 5.64007H63.3569ZM29.2745 0.488066C29.1598 0.320153 29.0073 0.191645 28.8388 0.10985L29.0776 0.622667L29.078 0.623584L29.0831 0.634626L29.2813 0.497898L29.2745 0.488066ZM29.1031 0.67739L29.3117 0.541941L31.8918 4.28372L32.8271 5.64007H32.1619H31.8159H31.6593H31.4134L30.8954 4.52738L30.6627 4.02754L29.1031 0.67739Z" stroke="#292929" stroke-width="50"/>
</svg>
