<svg width="111" height="111" viewBox="0 0 111 111" fill="none" xmlns="http://www.w3.org/2000/svg">
<path d="M34.4864 7.93501C39.7049 5.6296 45.2979 4.18476 51.0473 3.69085L50.0581 4.06863C45.3817 5.85441 41.2849 8.80611 38.1291 12.5967L34.4864 7.93501ZM29.0479 29.8933H29.6024H34.2867H51.3067H54.8067V26.3933V7.33833V3.50462C55.0376 3.50154 55.2687 3.5 55.5 3.5C55.7313 3.5 55.9624 3.50154 56.1933 3.50462V7.33833V26.3933V29.906L59.706 29.8933L76.726 29.8316L81.3696 29.8148L81.3976 29.8933H83.8667H92.901H94.6583H94.905V26.3933V26.2096L97.2321 24.4765C98.8244 26.6185 100.244 28.873 101.483 31.2183H99.6533H86.3333H82.2492H81.8687H79.55H59.6933H56.1933V34.7183V51.3683V54.8683H59.6933H82.0783H85.7352L85.7191 54.5003L88.6684 54.5593L104.085 54.8676L107.497 54.9359C107.499 55.1238 107.5 55.3118 107.5 55.5C107.5 55.6284 107.5 55.7567 107.499 55.885H104.217H88.7383H85.869L85.6207 57.1269L85.6759 55.885H82.0167H59.6933H56.1933V59.385V76.035V79.535H59.6933H79.4883H81.888H82.1876H86.3333H99.715H101.612C101.293 80.1473 100.961 80.7536 100.618 81.3533H94.6583H83.805H81.8754L81.9521 81.1683H76.7133H59.6933H56.1933V84.6683V103.415V103.662V107.495C55.9624 107.498 55.7313 107.5 55.5 107.5C55.2893 107.5 55.0788 107.499 54.8683 107.496V103.415V84.36V80.8473L51.3557 80.86L34.3357 80.9217L29.1174 80.9406L29.2884 81.3533H27.1333H18.2502L17.142 79.8433H24.6667H28.8124H29.1078H31.5117H51.3067H54.8067V76.3433V59.6933V56.1933H51.3067H28.9833H25.6729H25.3241H22.3233H6.845H3.50462C3.50154 55.9624 3.5 55.7313 3.5 55.5C3.5 55.2687 3.50154 55.0376 3.50462 54.8067H6.845H22.3233H25.3292L25.3265 54.8683H28.9833H51.3067H54.8067V51.3683V34.7183V31.2183H51.3067H31.5117H29.0954L29.1102 31.1567H24.6667H11.3467H9.54992C9.7746 30.7325 10.0052 30.3114 10.2417 29.8933H16.3417H27.1333H29.0479ZM60.9367 4.06662L59.9465 3.69032C65.6981 4.18373 71.2933 5.62878 76.5136 7.93501L72.8835 12.5805C69.7209 8.79238 65.6178 5.84555 60.9367 4.06662ZM75.9098 101.539L76.572 103.039C71.3349 105.36 65.7195 106.814 59.9464 107.31L60.9367 106.933C65.1354 105.338 68.8692 102.802 71.8763 99.5633L75.9098 101.539ZM50.125 106.687L51.9452 107.378C45.9283 106.966 40.0693 105.513 34.6164 103.122L38.3459 98.372C41.4853 102.064 45.5262 104.939 50.125 106.687ZM12.9596 83.7466L12.5861 84.867C11.478 83.2477 10.4647 81.5702 9.54992 79.8433H11.3467H14.2606L13.0213 83.5616L12.9596 83.7466Z" stroke="#292929" stroke-width="7"/>
</svg>
