<svg width="136" height="111" viewBox="0 0 136 111" fill="none" xmlns="http://www.w3.org/2000/svg">
<path d="M119.9 77.0204V79.5204H122.4H129.197C130.338 79.5217 131.432 79.9754 132.239 80.7815C133.045 81.5875 133.499 82.68 133.5 83.8193V104.201C133.499 105.34 133.045 106.433 132.239 107.239C131.432 108.045 130.338 108.499 129.197 108.5H106.536C105.395 108.499 104.301 108.045 103.495 107.239C102.688 106.433 102.235 105.34 102.233 104.201V83.8192C102.235 82.68 102.688 81.5875 103.495 80.7815C104.301 79.9754 105.395 79.5217 106.536 79.5204H113.333H115.833V77.0204V61.1633V58.6633H113.333H72.5333H70.0333V61.1633V77.0204V79.5204H72.5333H79.3304C80.4717 79.5217 81.5656 79.9754 82.3721 80.7815C83.1786 81.5875 83.632 82.68 83.6333 83.8192V104.201C83.632 105.34 83.1786 106.433 82.3721 107.239C81.5656 108.045 80.4717 108.499 79.3304 108.5H56.6696C55.5283 108.499 54.4344 108.045 53.6279 107.239C52.8214 106.433 52.368 105.34 52.3667 104.201V83.8192C52.368 82.68 52.8214 81.5875 53.6279 80.7815C54.4344 79.9754 55.5283 79.5217 56.6696 79.5204H63.4667H65.9667V77.0204V61.1633V58.6633H63.4667H22.6667H20.1667V61.1633V77.0204V79.5204H22.6667H29.4638C30.605 79.5217 31.6989 79.9754 32.5054 80.7815C33.3119 81.5875 33.7653 82.68 33.7667 83.8192V104.201C33.7653 105.34 33.3119 106.433 32.5054 107.239C31.6989 108.045 30.605 108.499 29.4638 108.5H6.80291C5.66163 108.499 4.56778 108.045 3.76123 107.239C2.95503 106.433 2.50166 105.341 2.5 104.202V83.818C2.50166 82.6792 2.95503 81.5872 3.76123 80.7815C4.56778 79.9754 5.66163 79.5217 6.80291 79.5204H13.6H16.1V77.0204L16.1 58.9008C16.1 58.9003 16.1 58.8998 16.1 58.8993C16.1017 57.7606 16.555 56.6687 17.3611 55.8631C18.1677 55.057 19.2615 54.6033 20.4028 54.602H63.4667H65.9667V52.102V33.9796V31.4796H63.4667L54.4029 31.4796C54.4024 31.4796 54.402 31.4796 54.4015 31.4796C53.2607 31.4779 52.1674 31.0242 51.3612 30.2185C50.5547 29.4125 50.1013 28.32 50.1 27.1808V6.79883C50.1013 5.6596 50.5547 4.56711 51.3612 3.76109C52.1675 2.95533 53.2608 2.50166 54.4016 2.5H81.5984C82.7392 2.50166 83.8325 2.95533 84.6388 3.7611C85.4453 4.56711 85.8987 5.6596 85.9 6.79883V27.1808C85.8987 28.32 85.4453 29.4125 84.6388 30.2185C83.8326 31.0242 82.7393 31.4779 81.5985 31.4796C81.598 31.4796 81.5976 31.4796 81.5971 31.4796L72.5333 31.4796H70.0333V33.9796V52.102V54.602H72.5333H115.597C116.738 54.6033 117.832 55.057 118.639 55.863C119.445 56.6691 119.899 57.7615 119.9 58.9008V77.0204ZM56.6667 6.56122H54.1667V9.06122V24.9184V27.4184H56.6667H79.3333H81.8333V24.9184V9.06122V6.56122H79.3333H56.6667ZM29.7 86.0816V83.5816H27.2H9.06667H6.56667V86.0816V101.939V104.439H9.06667H27.2H29.7V101.939V86.0816ZM79.5667 86.0816V83.5816H77.0667H58.9333H56.4333V86.0816V101.939V104.439H58.9333H77.0667H79.5667V101.939V86.0816ZM126.933 104.439H129.433V101.939V86.0816V83.5816H126.933H108.8H106.3V86.0816V101.939V104.439H108.8H126.933Z" stroke="#292929" stroke-width="5"/>
</svg>
