<svg width="95" height="111" viewBox="0 0 95 111" fill="none" xmlns="http://www.w3.org/2000/svg">
<mask id="path-1-inside-1_3_316" fill="white">
<path d="M17.5697 83.9573C17.5697 86.8561 19.9329 89.2222 22.8406 89.2222H28.8662V104.137C28.8662 107.915 31.8976 111 35.6219 111C39.3585 111 42.3776 107.928 42.3776 104.137V89.2098H52.8946V104.125C52.8946 107.903 55.926 110.988 59.6503 110.988C63.3869 110.988 66.4059 107.915 66.4059 104.125V89.2098H72.4316C75.3392 89.2098 77.7025 86.8437 77.7025 83.945V34.9882H17.5697V83.9573ZM61.7537 9.61791L67.3092 1.56581C67.6309 1.09507 67.5566 0.46329 67.1236 0.153594C66.6905 -0.143715 66.0719 0.00494039 65.7502 0.475678L59.9843 8.84986C56.1858 7.35093 51.9543 6.52094 47.5123 6.52094C43.0704 6.52094 38.8389 7.35093 35.0404 8.84986L29.2745 0.488066C28.9528 0.017328 28.3342 -0.143714 27.9011 0.165982C27.4681 0.463291 27.3938 1.08268 27.7155 1.5782L33.271 9.63029C24.4367 13.7431 18.2502 21.535 17.4583 30.6401H77.5911C76.7745 21.5226 70.5756 13.7307 61.7537 9.61791ZM34.8176 22.3154C34.1594 22.3154 33.5159 22.12 32.9685 21.7538C32.4212 21.3877 31.9946 20.8672 31.7427 20.2583C31.4907 19.6494 31.4248 18.9794 31.5533 18.333C31.6817 17.6866 31.9987 17.0928 32.4641 16.6268C32.9296 16.1608 33.5227 15.8434 34.1683 15.7148C34.814 15.5862 35.4832 15.6522 36.0913 15.9044C36.6995 16.1567 37.2193 16.5838 37.5851 17.1318C37.9508 17.6798 38.146 18.324 38.146 18.9831C38.1437 19.8662 37.7923 20.7125 37.1686 21.3369C36.5449 21.9613 35.6997 22.3132 34.8176 22.3154ZM60.603 22.3154C59.9447 22.3154 59.3012 22.12 58.7539 21.7538C58.2065 21.3877 57.7799 20.8672 57.528 20.2583C57.2761 19.6494 57.2102 18.9794 57.3386 18.333C57.467 17.6866 57.784 17.0928 58.2495 16.6268C58.715 16.1608 59.308 15.8434 59.9537 15.7148C60.5993 15.5862 61.2685 15.6522 61.8767 15.9044C62.4849 16.1567 63.0047 16.5838 63.3704 17.1318C63.7361 17.6798 63.9313 18.324 63.9313 18.9831C63.929 19.8662 63.5776 20.7125 62.954 21.3369C62.3303 21.9613 61.485 22.3132 60.603 22.3154ZM88.2443 34.79C84.5076 34.79 81.4886 37.8622 81.4886 41.6529V68.4602C81.4886 72.2384 84.52 75.323 88.2443 75.323C91.9809 75.323 95 72.2508 95 68.4602V41.6405C95.0123 37.8498 91.9933 34.79 88.2443 34.79ZM6.75566 34.79C3.01901 34.79 0 37.8622 0 41.6529V68.4602C0 72.2384 3.03139 75.323 6.75566 75.323C10.4923 75.323 13.5113 72.2508 13.5113 68.4602V41.6405C13.5113 37.8498 10.4799 34.79 6.75566 34.79Z"/>
</mask>
<path d="M28.8662 89.2222H78.8662V39.2222H28.8662V89.2222ZM42.3776 89.2098V39.2098H-7.62245V89.2098H42.3776ZM52.8946 89.2098H102.895V39.2098H52.8946V89.2098ZM66.4059 89.2098V39.2098H16.4059V89.2098H66.4059ZM77.7025 34.9882H127.702V-15.0118H77.7025V34.9882ZM17.5697 34.9882V-15.0118H-32.4303V34.9882H17.5697ZM67.3092 1.56581L108.464 29.9605L108.527 29.8688L108.59 29.777L67.3092 1.56581ZM67.1236 0.153594L96.2085 -40.5166L95.8184 -40.7956L95.423 -41.067L67.1236 0.153594ZM65.7502 0.475678L106.933 28.8307L106.982 28.7589L107.031 28.6868L65.7502 0.475678ZM59.9843 8.84986L41.6311 55.3596L78.6176 69.9549L101.167 37.2049L59.9843 8.84986ZM35.0404 8.84986L-6.12243 37.2334L16.4333 69.9445L53.3936 55.3596L35.0404 8.84986ZM29.2745 0.488066L-12.0066 28.6992L-11.9476 28.7855L-11.8883 28.8716L29.2745 0.488066ZM27.9011 0.165982L56.2006 41.3866L56.596 41.1152L56.9861 40.8362L27.9011 0.165982ZM27.7155 1.5782L-14.2216 28.8047L-13.8388 29.3942L-13.4396 29.9728L27.7155 1.5782ZM33.271 9.63029L54.3735 54.9589L108.05 29.9701L74.4261 -18.7644L33.271 9.63029ZM17.4583 30.6401L-32.3537 26.3079L-37.079 80.6401H17.4583V30.6401ZM77.5911 30.6401V80.6401H132.27L127.392 26.1796L77.5911 30.6401ZM38.146 18.9831L88.1458 19.1126L88.146 19.0478V18.9831H38.146ZM60.603 22.3154V72.3154H60.6679L60.7328 72.3153L60.603 22.3154ZM63.9313 18.9831L113.931 19.1126L113.931 19.0478V18.9831H63.9313ZM95 41.6405L45.0002 41.4773L45 41.5589V41.6405H95ZM-32.4303 83.9573C-32.4303 114.49 -7.66133 139.222 22.8406 139.222V39.2222C47.5272 39.2222 67.5697 59.2219 67.5697 83.9573H-32.4303ZM22.8406 139.222H28.8662V39.2222H22.8406V139.222ZM-21.1338 89.2222V104.137H78.8662V89.2222H-21.1338ZM-21.1338 104.137C-21.1338 134.76 3.52025 161 35.6219 161V61C60.275 61 78.8662 81.0705 78.8662 104.137H-21.1338ZM35.6219 161C67.7368 161 92.3775 134.772 92.3775 104.137H-7.62245C-7.62245 81.0838 10.9803 61 35.6219 61V161ZM92.3775 104.137V89.2098H-7.62245V104.137H92.3775ZM42.3776 139.21H52.8946V39.2098H42.3776V139.21ZM2.8946 89.2098V104.125H102.895V89.2098H2.8946ZM2.8946 104.125C2.8946 134.748 27.5487 160.988 59.6503 160.988V60.9876C84.3033 60.9876 102.895 81.0581 102.895 104.125H2.8946ZM59.6503 160.988C91.7652 160.988 116.406 134.759 116.406 104.125H16.4059C16.4059 81.0715 35.0086 60.9876 59.6503 60.9876V160.988ZM116.406 104.125V89.2098H16.4059V104.125H116.406ZM66.4059 139.21H72.4316V39.2098H66.4059V139.21ZM72.4316 139.21C102.934 139.21 127.702 114.478 127.702 83.945H27.7025C27.7025 59.2095 47.745 39.2098 72.4316 39.2098V139.21ZM127.702 83.945V34.9882H27.7025V83.945H127.702ZM77.7025 -15.0118H17.5697V84.9882H77.7025V-15.0118ZM-32.4303 34.9882V83.9573H67.5697V34.9882H-32.4303ZM102.909 38.0126L108.464 29.9605L26.154 -26.8288L20.5986 -18.7767L102.909 38.0126ZM108.59 29.777C121.626 10.7014 122.375 -21.8041 96.2085 -40.5166L38.0386 40.8238C12.7386 22.7307 13.6354 -8.51126 26.028 -26.6453L108.59 29.777ZM95.423 -41.067C68.604 -59.4793 37.8222 -47.2751 24.469 -27.7355L107.031 28.6868C94.3215 47.285 64.7771 59.1919 38.8241 41.3742L95.423 -41.067ZM24.5678 -27.8794L18.8019 -19.5052L101.167 37.2049L106.933 28.8307L24.5678 -27.8794ZM78.3375 -37.6599C68.6308 -41.4903 58.1677 -43.4791 47.5123 -43.4791V56.5209C45.7408 56.5209 43.7408 56.1921 41.6311 55.3596L78.3375 -37.6599ZM47.5123 -43.4791C36.857 -43.4791 26.3938 -41.4903 16.6872 -37.6599L53.3936 55.3596C51.2839 56.1921 49.2839 56.5209 47.5123 56.5209V-43.4791ZM76.2031 -19.5337L70.4373 -27.8955L-11.8883 28.8716L-6.12243 37.2334L76.2031 -19.5337ZM70.5557 -27.7231C57.8899 -46.2567 26.7575 -60.4862 -1.18383 -40.5042L56.9861 40.8362C29.9109 60.1988 0.0157275 46.2914 -12.0066 28.6992L70.5557 -27.7231ZM-0.398331 -41.0546C-28.3192 -21.886 -25.6628 11.1817 -14.2216 28.8047L69.6526 -25.6483C80.4504 -9.01634 83.2553 22.8125 56.2006 41.3866L-0.398331 -41.0546ZM-13.4396 29.9728L-7.88411 38.0249L74.4261 -18.7644L68.8707 -26.8165L-13.4396 29.9728ZM12.1686 -35.6984C-9.88861 -25.4298 -29.7463 -3.67235 -32.3537 26.3079L67.2703 34.9722C66.2466 46.7424 58.762 52.9159 54.3735 54.9589L12.1686 -35.6984ZM17.4583 80.6401H77.5911V-19.3599H17.4583V80.6401ZM127.392 26.1796C124.714 -3.72034 104.905 -25.4318 82.8805 -35.6994L40.6269 54.9352C36.2465 52.8931 28.8353 46.7656 27.7905 35.1005L127.392 26.1796ZM34.8176 -27.6846C44.0619 -27.6846 53.0935 -24.9397 60.77 -19.8043L5.167 63.3119C13.9383 69.1797 24.2569 72.3154 34.8176 72.3154V-27.6846ZM60.77 -19.8043C68.4459 -14.6692 74.4196 -7.37693 77.9447 1.14373L-14.4594 39.373C-10.4304 49.1114 -3.60358 57.4446 5.167 63.3119L60.77 -19.8043ZM77.9447 1.14373C81.4696 9.66375 82.3909 19.0355 80.5948 28.0763L-17.4882 8.58973C-19.5413 18.9234 -18.4881 29.6351 -14.4594 39.373L77.9447 1.14373ZM80.5948 28.0763C78.7985 37.1174 74.3633 45.4305 67.8407 51.961L-2.91236 -18.7073C-10.366 -11.2448 -15.4352 -1.7442 -17.4882 8.58973L80.5948 28.0763ZM67.8407 51.961C61.3173 58.4921 52.9989 62.9466 43.9341 64.7518L24.4026 -33.3222C14.0465 -31.2598 4.54191 -26.1706 -2.91236 -18.7073L67.8407 51.961ZM43.9341 64.7518C34.8689 66.5572 25.4732 65.6301 16.9376 62.0903L55.2451 -30.2814C45.4931 -34.3257 34.759 -35.3847 24.4026 -33.3222L43.9341 64.7518ZM16.9376 62.0903C8.40271 58.5508 1.11743 52.5609 -4.00379 44.8873L79.1739 -10.6237C73.3212 -19.3934 64.9963 -26.2375 55.2451 -30.2814L16.9376 62.0903ZM-4.00379 44.8873C-9.12459 37.2143 -11.854 28.1997 -11.854 18.9831H88.146C88.146 8.44843 85.0262 -1.85473 79.1739 -10.6237L-4.00379 44.8873ZM-11.8539 18.8537C-11.822 6.54014 -6.92271 -5.272 1.7921 -13.9973L72.5451 56.671C82.5073 46.6969 88.1094 33.1922 88.1458 19.1126L-11.8539 18.8537ZM1.7921 -13.9973C10.5088 -22.7244 22.3348 -27.6523 34.6879 -27.6844L34.9474 72.3153C49.0646 72.2786 62.581 66.6471 72.5451 56.671L1.7921 -13.9973ZM60.603 -27.6846C69.8471 -27.6846 78.8787 -24.9398 86.5554 -19.8043L30.9523 63.3119C39.7237 69.1798 50.0423 72.3154 60.603 72.3154V-27.6846ZM86.5554 -19.8043C94.2315 -14.6691 100.205 -7.37664 103.73 1.14373L11.3259 39.373C15.3548 49.1111 22.1815 57.4444 30.9523 63.3119L86.5554 -19.8043ZM103.73 1.14373C107.255 9.66338 108.176 19.0351 106.38 28.0763L8.2971 8.58973C6.244 18.9238 7.29738 29.6355 11.3259 39.373L103.73 1.14373ZM106.38 28.0763C104.584 37.1177 100.148 45.4307 93.626 51.961L22.873 -18.7073C15.4196 -11.245 10.3503 -1.74455 8.2971 8.58973L106.38 28.0763ZM93.626 51.961C87.1027 58.4921 78.7843 62.9466 69.7194 64.7518L50.1879 -33.3222C39.8318 -31.2598 30.3273 -26.1706 22.873 -18.7073L93.626 51.961ZM69.7194 64.7518C60.6543 66.5572 51.2585 65.6301 42.7229 62.0903L81.0304 -30.2814C71.2785 -34.3257 60.5443 -35.3847 50.1879 -33.3222L69.7194 64.7518ZM42.7229 62.0903C34.1878 58.5507 26.9026 52.5607 21.7816 44.8873L104.959 -10.6237C99.1067 -19.3932 90.7819 -26.2374 81.0304 -30.2814L42.7229 62.0903ZM21.7816 44.8873C16.6608 37.2143 13.9313 28.1997 13.9313 18.9831H113.931C113.931 8.44843 110.811 -1.85473 104.959 -10.6237L21.7816 44.8873ZM13.9315 18.8537C13.9634 6.54029 18.8625 -5.2719 27.5774 -13.9973L98.3305 56.671C108.293 46.6968 113.895 33.1921 113.931 19.1126L13.9315 18.8537ZM27.5774 -13.9973C36.2941 -22.7244 48.12 -27.6523 60.4732 -27.6844L60.7328 72.3153C74.85 72.2786 88.3664 66.6471 98.3305 56.671L27.5774 -13.9973ZM88.2443 -15.21C56.1293 -15.21 31.4886 11.0182 31.4886 41.6529H131.489C131.489 64.7061 112.886 84.79 88.2443 84.79V-15.21ZM31.4886 41.6529V68.4602H131.489V41.6529H31.4886ZM31.4886 68.4602C31.4886 99.0833 56.1426 125.323 88.2443 125.323V25.323C112.897 25.323 131.489 45.3936 131.489 68.4602H31.4886ZM88.2443 125.323C120.359 125.323 145 99.0949 145 68.4602H45C45 45.4067 63.6028 25.323 88.2443 25.323V125.323ZM145 68.4602V41.6405H45V68.4602H145ZM145 41.8037C145.101 10.8327 120.166 -15.21 88.2443 -15.21V84.79C63.8203 84.79 44.9239 64.8669 45.0002 41.4773L145 41.8037ZM6.75566 -15.21C-25.3593 -15.21 -50 11.0182 -50 41.6529H50C50 64.7061 31.3973 84.79 6.75566 84.79V-15.21ZM-50 41.6529V68.4602H50V41.6529H-50ZM-50 68.4602C-50 99.0833 -25.346 125.323 6.75566 125.323V25.323C31.4088 25.323 50 45.3936 50 68.4602H-50ZM6.75566 125.323C38.8706 125.323 63.5113 99.0948 63.5113 68.4602H-36.4887C-36.4887 45.4068 -17.8859 25.323 6.75566 25.323V125.323ZM63.5113 68.4602V41.6405H-36.4887V68.4602H63.5113ZM63.5113 41.6405C63.5113 10.8272 38.6821 -15.21 6.75566 -15.21V84.79C-17.7223 84.79 -36.4887 64.8724 -36.4887 41.6405H63.5113Z" fill="#292929" mask="url(#path-1-inside-1_3_316)"/>
</svg>
