<svg width="39" height="36" viewBox="0 0 39 36" fill="none" xmlns="http://www.w3.org/2000/svg">
<rect width="38.6063" height="36" rx="18" fill="url(#paint0_linear_7_24)"/>
<path fill-rule="evenodd" clip-rule="evenodd" d="M8.25236 23.8375L6.43433 30L13.2279 28.3465C15.1068 29.2964 17.2121 29.7941 19.3516 29.7943H19.3571C26.4197 29.7943 32.1689 24.4584 32.1719 17.9015C32.1733 14.7455 30.8237 11.7183 28.4203 9.48619C26.0169 7.25408 22.7565 6.00001 19.3569 6C12.293 6 6.54474 11.3347 6.54191 17.8919C6.53916 19.9789 7.12914 22.0297 8.25236 23.8375ZM13.9318 26.4075L13.5426 26.1933L9.51138 27.1745L10.5876 23.527L10.334 23.1531C9.26728 21.5774 8.70277 19.7537 8.70574 17.8927C8.70808 12.4426 13.4859 8.0087 19.3611 8.0087C25.2436 8.01091 30.0104 12.4396 30.0081 17.9005C30.0056 23.351 25.2276 27.7855 19.3571 27.7855H19.3529C17.4455 27.7856 15.5731 27.3097 13.9318 26.4075Z" fill="url(#paint1_linear_7_24)"/>
<path fill-rule="evenodd" clip-rule="evenodd" d="M16.1543 12.9205C15.9147 12.4255 15.6619 12.4156 15.4337 12.4071C15.2471 12.3997 15.0334 12.4002 14.8201 12.4002C14.492 12.4081 14.1824 12.5429 13.9661 12.772C13.6725 13.0695 12.8452 13.7886 12.8452 15.251C12.8452 16.7134 13.9927 18.1267 14.1527 18.3254C14.3127 18.5241 16.3679 21.6206 19.6224 22.8121C22.3272 23.8023 22.8776 23.6053 23.4648 23.5558C24.0519 23.5063 25.3591 22.8371 25.626 22.1428C25.8929 21.4484 25.8928 20.8537 25.8128 20.7296C25.7327 20.6055 25.5192 20.5314 25.199 20.3828C24.8787 20.2341 23.3046 19.5149 23.0111 19.4158C22.7175 19.3166 22.504 19.2671 22.2905 19.5648C22.077 19.8624 21.4637 20.5314 21.2767 20.7296C21.0897 20.9277 20.9031 20.953 20.5828 20.8044C20.2626 20.6557 19.2311 20.3417 18.0079 19.3291C17.0561 18.5413 16.4134 17.5683 16.2267 17.2707C16.0399 16.9731 16.2066 16.8124 16.3672 16.6642C16.511 16.5311 16.6875 16.3172 16.8476 16.1437C17.0077 15.9701 17.0607 15.8462 17.1675 15.648C17.2743 15.4498 17.2209 15.2759 17.1408 15.1273C17.0607 14.9786 16.4389 13.5083 16.1543 12.9205Z" fill="white"/>
<defs>
<linearGradient id="paint0_linear_7_24" x1="38.6063" y1="36" x2="38.6063" y2="0" gradientUnits="userSpaceOnUse">
<stop stop-color="#20B038"/>
<stop offset="1" stop-color="#60D66A"/>
</linearGradient>
<linearGradient id="paint1_linear_7_24" x1="32.1719" y1="30" x2="32.1719" y2="6" gradientUnits="userSpaceOnUse">
<stop stop-color="#F9F9F9"/>
<stop offset="1" stop-color="white"/>
</linearGradient>
</defs>
</svg>
